<?xml version="1.0" standalone="no"?>
<!DOCTYPE svg PUBLIC "-//W3C//DTD SVG 20010904//EN"
 "http://www.w3.org/TR/2001/REC-SVG-20010904/DTD/svg10.dtd">
<svg version="1.0" xmlns="http://www.w3.org/2000/svg"
 width="827.000000pt" height="827.000000pt" viewBox="0 0 827.000000 827.000000"
 preserveAspectRatio="xMidYMid meet">
<metadata>
Created by potrace 1.11, written by Peter Selinger 2001-2013
</metadata>
<g transform="translate(0.000000,827.000000) scale(0.100000,-0.100000)"
fill="#000000" stroke="none">
<path d="M7790 7724 c-41 -8 -124 -23 -185 -35 -60 -11 -175 -34 -255 -50 -80
-16 -154 -30 -165 -32 -11 -2 -31 -7 -45 -10 -14 -4 -97 -22 -185 -41 -164
-36 -309 -71 -450 -107 -44 -11 -87 -22 -95 -24 -8 -1 -35 -9 -60 -16 -25 -7
-53 -14 -62 -16 -64 -11 -595 -168 -745 -219 -40 -14 -81 -27 -90 -29 -16 -4
-185 -63 -223 -78 -8 -4 -51 -18 -94 -33 -44 -15 -91 -33 -105 -41 -15 -7 -31
-13 -37 -13 -11 0 -358 -139 -444 -177 -25 -12 -108 -49 -185 -84 -168 -75
-483 -235 -621 -315 -54 -31 -112 -65 -129 -74 -57 -32 -110 -64 -120 -72 -5
-4 -65 -44 -133 -88 -208 -135 -453 -321 -602 -455 -79 -70 -314 -308 -375
-379 -124 -142 -249 -315 -337 -466 -61 -105 -168 -320 -168 -340 0 -6 -6 -24
-14 -38 -25 -48 -84 -236 -102 -327 -2 -11 -8 -42 -14 -70 -17 -86 -20 -108
-27 -195 -13 -158 -8 -345 13 -477 29 -189 99 -417 172 -558 14 -27 26 -52 27
-55 1 -11 79 -147 101 -177 13 -17 24 -36 24 -41 0 -6 3 -12 8 -14 4 -1 21
-23 37 -47 88 -130 280 -328 438 -451 56 -44 107 -85 114 -90 7 -6 16 -10 22
-10 5 0 11 -3 13 -7 3 -9 64 -53 72 -53 3 0 29 -15 58 -33 74 -47 289 -153
326 -162 18 -3 32 -11 32 -16 0 -5 6 -9 13 -9 6 0 45 -12 86 -27 64 -23 71
-28 50 -34 -13 -4 -85 -26 -159 -49 -74 -23 -155 -48 -180 -55 -25 -7 -121
-36 -215 -64 -93 -29 -201 -61 -240 -72 -38 -11 -91 -27 -116 -35 -25 -8 -54
-16 -65 -18 -10 -2 -46 -11 -79 -21 -114 -31 -486 -124 -523 -130 -20 -3 -53
-10 -72 -15 -19 -5 -52 -12 -74 -16 -21 -3 -46 -7 -55 -9 -112 -22 -235 -45
-271 -50 -25 -3 -56 -8 -70 -10 -32 -6 -94 -14 -145 -20 -22 -2 -60 -6 -85 -9
-111 -14 -254 -25 -385 -31 -86 -4 -395 -7 -411 -4 -40 7 -60 -3 -76 -41 -10
-25 -33 -51 -63 -72 l-47 -33 74 -23 c45 -14 87 -20 108 -17 19 3 58 7 85 10
28 3 66 8 85 10 19 3 51 7 70 10 19 2 58 7 85 11 28 3 64 7 81 9 34 4 98 12
154 20 66 9 135 17 170 21 19 2 46 6 60 8 14 3 50 8 80 11 30 4 96 13 145 20
50 8 113 17 140 21 28 3 57 7 65 9 8 1 35 6 60 10 68 10 92 14 120 20 13 2 40
7 60 10 38 6 70 12 110 20 26 6 35 7 110 21 25 4 47 8 50 9 43 10 71 16 99 20
19 3 37 8 41 10 4 2 22 7 41 10 19 3 59 12 89 20 30 8 67 16 82 19 15 2 31 7
36 10 5 3 19 7 33 10 41 7 222 56 249 67 14 5 34 11 45 13 11 2 101 32 200 65
99 34 185 63 190 65 6 2 19 6 30 11 11 4 67 25 125 47 58 22 119 45 135 53 52
23 158 65 165 65 3 0 35 -37 71 -82 35 -45 120 -139 189 -208 121 -122 318
-290 339 -290 6 0 11 -4 11 -9 0 -5 8 -12 18 -15 10 -4 27 -14 38 -24 23 -22
205 -128 294 -172 152 -75 428 -171 533 -185 15 -2 31 -6 35 -9 5 -3 31 -8 58
-12 27 -3 51 -7 54 -9 3 -2 43 -7 90 -12 154 -15 504 -8 580 12 8 2 33 6 55
10 213 31 539 150 742 271 107 64 137 84 224 148 220 163 412 355 587 590 79
106 166 237 201 302 12 21 31 55 42 74 27 45 108 205 149 295 126 275 236 608
315 951 37 165 40 179 55 273 6 36 12 67 14 70 2 3 7 33 11 66 3 33 10 80 15
105 5 25 12 72 15 105 4 33 9 74 11 90 6 43 20 196 29 300 27 340 27 1079 -1
1410 -4 39 -7 88 -9 110 -7 93 -16 205 -20 236 -2 19 -6 61 -9 94 -8 80 -18
166 -22 187 -1 9 -6 48 -9 85 -4 37 -9 79 -11 93 -2 14 -7 43 -10 65 -3 22
-10 67 -15 100 -5 33 -12 76 -14 95 -4 35 -7 56 -25 160 -5 30 -12 73 -15 95
-2 22 -7 51 -10 65 -11 55 -37 197 -39 220 -2 14 -6 34 -9 45 -3 11 -9 40 -12
65 -3 25 -10 59 -15 75 -5 17 -11 44 -14 60 -20 123 -47 229 -62 246 -20 22
-32 22 -134 3z"/>
</g>
</svg>
